<svg width="246" height="447" viewBox="0 0 246 447" fill="none" xmlns="http://www.w3.org/2000/svg">
<path d="M154.073 176.282C154.695 220.314 141.773 253.774 135.235 265C147.354 261.459 162.295 231.065 168.25 216.311C166.114 216.824 161.609 216.888 160.676 213.039C159.744 209.19 169.998 206.047 175.242 204.956C175.242 201.685 167.668 198.606 168.25 193.987C168.717 190.292 173.753 194.885 176.213 197.643C176.731 197.708 177.728 195.95 177.572 188.406C177.417 180.862 179.709 177.18 180.874 176.282C176.058 178.437 161 177.18 154.073 176.282Z" fill="url(#paint0_linear_3089_11313)"/>
<path d="M152.908 146.26L154.073 171.086L176.213 173.01C176.213 172.369 177.145 170.2 180.874 166.659C184.603 163.118 188.901 166.724 190.584 168.969C198.353 167.275 205.344 140.679 207.869 127.593C201.965 143.296 190.779 152.354 185.923 154.92H177.572L175.242 148.184L152.908 146.26Z" fill="url(#paint1_linear_3089_11313)"/>
<path d="M151.354 120.857L152.908 140.102H179.126C177.831 138.049 176.019 133.635 179.126 132.404C182.233 131.172 184.952 133.943 185.923 135.483C193.692 131.788 198.353 113.8 199.712 105.269C196.916 115.276 166.308 119.831 151.354 120.857Z" fill="url(#paint2_linear_3089_11313)"/>
<path d="M143.003 97.1859L149.412 112.197L180.874 109.31C180.291 106.423 179.476 99.9571 180.874 97.1859C182.272 94.4146 187.93 96.0312 190.584 97.1859C198.353 97.1859 205.344 86.1522 207.869 80.6354C198.871 83.2014 180.214 88.3333 177.572 88.3333C174.931 88.3333 173.882 83.2014 173.688 80.6354L143.003 97.1859Z" fill="url(#paint3_linear_3089_11313)"/>
<path d="M143.003 73.3224V88.3333C163.512 81.2512 181.327 64.3416 187.671 56.772C187.089 55.8097 184.913 53.1155 180.874 50.0363C176.834 46.957 183.722 45.6741 187.671 45.4175C182.363 44.3912 173.572 40.5294 180.874 33.2933C188.176 26.0573 191.555 36.3084 192.332 42.3384C194.792 40.4781 199.712 35.2564 199.712 29.252C197.537 16.3196 223.664 7.05643 237 4.0414H194.663C189.484 9.94312 177.339 21.7466 170.193 21.7466C163.046 21.7466 166.049 14.6902 168.445 11.1619L157.569 9.23747C156.08 13.4072 151.937 21.7466 147.276 21.7466C142.615 21.7466 140.414 16.4863 139.896 13.8562H110.182L106.104 17.8976V11.1619L95.0341 9.23747C92.1857 15.075 85.7898 26.6347 82.9932 26.1728C80.1966 25.711 75.0954 14.6902 72.8944 9.23747H61.0477L58.3288 17.8976C56.3867 17.5769 51.5704 17.1278 47.8416 17.8976C44.1128 18.6674 27.5145 6.28662 19.6814 0C22.7888 4.23384 29.0034 14.5105 29.0034 21.7466C28.4208 42.5309 36.5775 43.4931 38.7138 45.4175C38.7138 28.7901 44.799 30.4066 47.8416 33.2933L49.201 50.0363C54.1728 54.0392 53.4736 60.3001 52.5026 62.9302L66.2913 80.6354L95.0341 91.22L108.434 73.3224C106.259 73.3224 97.6883 66.3943 93.6746 62.9302C97.5588 63.3921 100.99 61.8397 102.22 61.0058L93.6746 50.0363C108.901 48.6506 114.779 56.0021 115.814 59.8511L129.02 61.0058C131.506 60.082 136.012 52.6664 137.954 49.074C141.217 53.8467 136.595 62.4812 133.876 66.2018L143.003 73.3224Z" fill="url(#paint4_linear_3089_11313)"/>
<path d="M121.252 154.92L110.182 123.551L123.388 101.997C124.036 104.435 126.068 111.273 129.02 119.125C131.972 126.977 125.072 146.26 121.252 154.92Z" fill="url(#paint5_linear_3089_11313)"/>
<path d="M61.0477 84.0995C66.2913 87.1787 77.5554 94.1068 80.6627 97.1859L76.7785 114.699L55.2215 109.31C52.7615 106.872 46.3656 101.035 40.4617 97.1859C34.5577 93.3369 29.0681 98.7896 27.0613 101.997C23.1772 94.6842 30.9455 82.3675 27.0613 77.9412C23.954 74.4002 22.1414 78.2619 21.6235 80.6354C15.7196 76.4785 10.7479 58.5039 9 50.0363L52.5026 91.22L61.0477 84.0995Z" fill="url(#paint6_linear_3089_11313)"/>
<path d="M45.8995 109.31L80.6627 127.593V140.102H69.3986C66.615 138.562 59.8825 134.867 55.2215 132.404C50.5605 129.94 42.2743 130.223 38.7138 130.672C42.2096 128.298 47.1036 123.551 38.7138 123.551C30.324 123.551 23.8245 114.057 21.6235 109.31C31.7223 115.16 42.0153 111.748 45.8995 109.31Z" fill="url(#paint7_linear_3089_11313)"/>
<path d="M66.2913 148.184L80.6627 150.494V163.965L55.2215 161.271C49.3952 172.048 27.0613 162.041 36.9659 163.965C44.8896 165.505 48.4242 157.165 49.201 152.803C49.201 152.033 46.754 150.494 36.9659 150.494C27.1778 150.494 22.6593 137.279 21.6235 130.672C26.0903 137.792 40.4617 135.483 47.8416 135.483C53.7455 135.483 62.6014 143.951 66.2913 148.184Z" fill="url(#paint8_linear_3089_11313)"/>
<path d="M61.0477 168.969H80.6627C74.9141 205.303 90.4378 228.627 98.9182 235.748C65.3203 224.586 69.3986 197.643 66.2913 192.255C63.8055 187.944 57.8757 198.926 55.2215 204.956C57.1635 199.953 59.8825 188.483 55.2215 182.633C50.5605 176.782 40.0733 185.07 35.4123 189.946C34.1693 185.327 51.9847 174.037 61.0477 168.969Z" fill="url(#paint9_linear_3089_11313)"/>
<path d="M1 395.685C95.9227 397.44 149.426 397.437 245 395.685C149.349 393.448 95.9902 393.429 1 395.685Z" fill="white" stroke="white"/>
<path d="M1 444.315C95.9227 442.56 149.426 442.563 245 444.315C149.349 446.552 95.9902 446.571 1 444.315Z" fill="white" stroke="white"/>
<path d="M175 306.315C202.232 304.56 217.581 304.563 245 306.315C217.559 308.552 202.251 308.571 175 306.315Z" fill="white"/>
<path d="M0 306.315C27.2319 304.56 42.5812 304.563 70 306.315C42.5592 308.552 27.2513 308.571 0 306.315Z" fill="white"/>
<g filter="url(#filter0_d_3089_11313)">
<path d="M47.9663 342.504L48.5103 348.36L48.4463 348.392C47.7103 347.112 46.2063 346.024 44.2863 346.024H41.8863V359.944C41.8863 362.696 42.7823 364.392 43.8383 364.936V365H35.5503V364.936C36.4783 364.392 37.5023 362.664 37.5023 359.944V346.024H35.0703C33.1503 346.024 31.6463 347.112 30.9103 348.392L30.8463 348.36L31.3903 342.504C32.8623 342.696 34.2063 342.76 35.7743 342.76H43.5823C45.1503 342.76 46.4943 342.696 47.9663 342.504ZM73.4638 358.856L73.5278 358.888L72.6318 365.256C71.4478 365.064 70.6158 365 68.7278 365H57.4318V364.936C58.2318 364.392 59.1598 362.824 59.1598 360.2V347.56C59.1598 344.904 58.2638 343.368 57.4318 342.824V342.76H68.9198C70.1998 342.76 71.6078 342.664 72.3118 342.504L72.8558 348.232L72.7918 348.264C72.0238 346.696 70.2638 345.896 67.7678 345.896H63.5438V351.528H65.9758C68.6318 351.528 69.5278 351.496 70.9678 351.304L70.0398 356.68H69.9758C69.4318 355.24 68.2798 354.664 66.4878 354.664H63.5438V361.864H67.0318C69.8478 361.864 72.0878 360.808 73.4638 358.856ZM89.6753 365.48C87.0833 365.512 84.6513 365.064 83.2113 364.2L82.6673 358.824L82.7313 358.792C84.6513 361.288 86.7313 362.216 89.3553 362.152C91.9473 362.088 93.0673 361 93.0673 359.272C93.0673 357.064 91.1153 356.232 88.9393 355.336C86.1553 354.184 83.0513 352.872 83.0513 348.424C83.0513 345.256 85.7713 342.344 90.7313 342.344C92.3953 342.344 93.8993 342.536 95.7553 343.016L96.1713 348.264H96.1073C94.7313 346.152 92.9073 345.64 91.0513 345.64C88.6193 345.64 87.3713 346.472 87.3713 348.104C87.3713 349.96 89.1633 350.696 91.2433 351.56C94.0913 352.744 97.4833 354.152 97.4833 358.952C97.4833 362.504 94.8593 365.416 89.6753 365.48ZM117.578 365.48C110.666 365.48 106.314 360.584 106.314 354.024C106.314 346.824 111.05 342.312 118.346 342.312C120.394 342.312 122.122 342.568 123.978 343.112L124.49 348.648L124.426 348.68C123.114 346.632 120.778 345.672 118.314 345.672C113.802 345.672 111.082 348.776 111.082 353.704C111.082 358.6 113.45 362.088 117.898 362.088C121.354 362.088 123.434 360.68 125.098 358.504L125.162 358.536L124.394 364.264C122.762 364.84 120.266 365.48 117.578 365.48ZM144.794 365.64C137.626 365.64 133.402 360.648 133.402 354.088C133.402 346.888 137.882 342.12 145.274 342.12C152.122 342.12 156.698 346.76 156.698 353.64C156.698 360.776 151.93 365.64 144.794 365.64ZM145.114 362.312C149.05 362.312 151.93 359.08 151.93 353.96C151.93 348.552 149.306 345.448 144.954 345.448C140.73 345.448 138.17 348.776 138.17 353.768C138.17 359.016 140.538 362.312 145.114 362.312ZM182.215 360.68C183.431 362.632 184.839 363.912 186.375 364.424V364.488L179.815 365.672C179.399 364.424 178.887 363.304 178.183 362.12L173.223 353.64H174.759C177.511 353.64 179.047 352.52 179.047 349.672C179.047 347.336 177.511 345.864 174.759 345.896L172.519 345.928V360.328C172.519 362.856 173.415 364.392 174.119 364.936V365H166.407V364.936C167.239 364.392 168.135 362.824 168.135 360.2V347.432C168.135 344.904 167.239 343.368 166.407 342.824V342.76H175.495C180.615 342.76 183.591 345.352 183.591 349.512C183.591 352.904 181.927 354.984 179.239 355.848L182.215 360.68ZM193.963 365V364.936C194.763 364.392 195.691 362.824 195.691 360.2V347.56C195.691 345.192 194.795 343.368 193.963 342.824V342.76H203.243C209.963 342.76 214.379 346.888 214.379 353.864C214.379 360.872 210.635 365 202.731 365H193.963ZM200.075 361.832H203.051C207.339 361.832 209.643 359.016 209.643 353.864C209.643 348.456 207.467 345.928 202.891 345.928H200.075V361.832Z" fill="#3DD6C6"/>
</g>
<path d="M22.935 421V413.46C22.935 413.353 22.935 413.207 22.935 413.02C22.935 412.833 22.9283 412.647 22.915 412.46C22.9017 412.26 22.8883 412.073 22.875 411.9C22.8617 411.713 22.835 411.58 22.795 411.5C22.7017 411.273 22.5483 411.107 22.335 411C22.135 410.88 21.9283 410.787 21.715 410.72C21.5017 410.64 21.315 410.567 21.155 410.5C20.995 410.433 20.915 410.34 20.915 410.22C20.915 410.1 20.9617 410.02 21.055 409.98C21.1483 409.927 21.2483 409.9 21.355 409.9C22.1283 409.9 22.895 409.933 23.655 410C24.415 410.053 25.1817 410.08 25.955 410.08C26.5817 410.08 27.2017 410.06 27.815 410.02C28.4417 409.98 29.0683 409.96 29.695 409.96C30.1617 409.96 30.595 410.027 30.995 410.16C31.395 410.28 31.7483 410.527 32.055 410.9C32.335 411.247 32.5683 411.607 32.755 411.98C32.9417 412.353 33.035 412.773 33.035 413.24C33.035 413.347 33.0083 413.447 32.955 413.54C32.9017 413.633 32.815 413.68 32.695 413.68C32.6283 413.68 32.575 413.667 32.535 413.64C32.5083 413.613 32.475 413.58 32.435 413.54C32.2217 413.287 32.0083 413.04 31.795 412.8C31.595 412.56 31.3617 412.34 31.095 412.14C30.5083 411.713 29.8417 411.433 29.095 411.3C28.3617 411.153 27.6417 411.08 26.935 411.08C26.4017 411.08 26.0417 411.173 25.855 411.36C25.6817 411.547 25.595 411.9 25.595 412.42L25.575 420.94C25.575 421.247 25.5883 421.527 25.615 421.78C25.6417 422.02 25.7083 422.24 25.815 422.44C25.9217 422.627 26.0683 422.787 26.255 422.92C26.455 423.04 26.7283 423.14 27.075 423.22C27.2083 423.247 27.3617 423.307 27.535 423.4C27.7083 423.493 27.795 423.627 27.795 423.8C27.795 423.933 27.7483 424.02 27.655 424.06C27.575 424.1 27.4817 424.12 27.375 424.12C26.815 424.12 26.2483 424.1 25.675 424.06C25.115 424.02 24.555 424 23.995 424C23.5017 424 23.0083 424.02 22.515 424.06C22.0217 424.1 21.5283 424.12 21.035 424.12C20.9283 424.12 20.815 424.093 20.695 424.04C20.5883 424 20.535 423.913 20.535 423.78C20.535 423.66 20.6217 423.573 20.795 423.52C20.9683 423.467 21.1683 423.413 21.395 423.36C21.635 423.293 21.875 423.207 22.115 423.1C22.355 422.993 22.5417 422.827 22.675 422.6C22.795 422.387 22.8683 422.127 22.895 421.82C22.9217 421.513 22.935 421.24 22.935 421ZM34.0525 417.46C34.0525 416.287 34.2392 415.227 34.6125 414.28C34.9858 413.333 35.5125 412.533 36.1925 411.88C36.8858 411.213 37.7125 410.707 38.6725 410.36C39.6325 410 40.6925 409.82 41.8525 409.82C42.8258 409.82 43.7458 409.98 44.6125 410.3C45.4925 410.607 46.2525 411.053 46.8925 411.64C47.5458 412.213 48.0592 412.913 48.4325 413.74C48.8192 414.567 49.0125 415.487 49.0125 416.5C49.0125 417.673 48.8258 418.74 48.4525 419.7C48.0792 420.647 47.5525 421.46 46.8725 422.14C46.1925 422.82 45.3725 423.347 44.4125 423.72C43.4658 424.08 42.4058 424.26 41.2325 424.26C40.2058 424.26 39.2525 424.107 38.3725 423.8C37.4925 423.493 36.7325 423.047 36.0925 422.46C35.4525 421.873 34.9525 421.16 34.5925 420.32C34.2325 419.48 34.0525 418.527 34.0525 417.46ZM36.6925 416.32C36.6925 417.093 36.7725 417.893 36.9325 418.72C37.1058 419.533 37.3858 420.28 37.7725 420.96C38.1592 421.627 38.6658 422.18 39.2925 422.62C39.9325 423.047 40.7192 423.26 41.6525 423.26C42.4925 423.26 43.2058 423.1 43.7925 422.78C44.3925 422.447 44.8858 422.007 45.2725 421.46C45.6592 420.913 45.9392 420.293 46.1125 419.6C46.2992 418.893 46.3925 418.167 46.3925 417.42C46.3925 416.62 46.2858 415.827 46.0725 415.04C45.8592 414.253 45.5325 413.547 45.0925 412.92C44.6658 412.293 44.1192 411.787 43.4525 411.4C42.7858 411.013 42.0058 410.82 41.1125 410.82C40.2725 410.82 39.5658 410.973 38.9925 411.28C38.4325 411.573 37.9792 411.973 37.6325 412.48C37.2992 412.973 37.0592 413.553 36.9125 414.22C36.7658 414.887 36.6925 415.587 36.6925 416.32ZM59.9183 412.78C59.9183 412.433 59.8916 412.153 59.8383 411.94C59.7849 411.713 59.6916 411.54 59.5583 411.42C59.4383 411.3 59.2649 411.22 59.0383 411.18C58.8116 411.127 58.5249 411.1 58.1783 411.1C58.0449 411.1 57.8783 411.113 57.6783 411.14C57.4783 411.153 57.2716 411.18 57.0583 411.22C56.8583 411.26 56.6649 411.313 56.4783 411.38C56.2916 411.447 56.1516 411.527 56.0583 411.62C55.9649 411.727 55.9049 411.847 55.8783 411.98C55.8649 412.113 55.8583 412.247 55.8583 412.38C55.8583 413.087 55.8716 413.787 55.8983 414.48C55.9383 415.173 55.9583 415.873 55.9583 416.58C55.9583 417.26 55.9183 417.94 55.8383 418.62C55.7716 419.167 55.6316 419.76 55.4183 420.4C55.2183 421.04 54.9383 421.64 54.5783 422.2C54.2316 422.747 53.8049 423.207 53.2983 423.58C52.8049 423.94 52.2316 424.12 51.5783 424.12C51.4716 424.12 51.3516 424.107 51.2183 424.08C51.0983 424.067 50.9783 424.033 50.8583 423.98C50.7516 423.927 50.6583 423.86 50.5783 423.78C50.4983 423.687 50.4583 423.573 50.4583 423.44C50.4583 423.373 50.4716 423.253 50.4983 423.08C50.5383 422.907 50.5849 422.733 50.6383 422.56C50.7049 422.373 50.7783 422.213 50.8583 422.08C50.9383 421.933 51.0183 421.86 51.0983 421.86C51.1649 421.86 51.2316 421.913 51.2983 422.02C51.3649 422.127 51.4383 422.24 51.5183 422.36C51.6116 422.48 51.7183 422.593 51.8383 422.7C51.9716 422.807 52.1249 422.86 52.2983 422.86C52.5649 422.86 52.7649 422.707 52.8983 422.4C53.0449 422.08 53.1516 421.72 53.2183 421.32C53.2849 420.907 53.3183 420.507 53.3183 420.12C53.3316 419.72 53.3383 419.433 53.3383 419.26C53.3383 418.207 53.3316 417.16 53.3183 416.12C53.3183 415.067 53.3183 414.013 53.3183 412.96C53.3183 412.84 53.3116 412.693 53.2983 412.52C53.2983 412.347 53.2849 412.173 53.2583 412C53.2449 411.813 53.2116 411.647 53.1583 411.5C53.1183 411.34 53.0583 411.22 52.9783 411.14C52.9116 411.073 52.8183 411.02 52.6983 410.98C52.5916 410.927 52.4783 410.88 52.3583 410.84C52.2516 410.8 52.1516 410.753 52.0583 410.7C51.9649 410.647 51.8983 410.58 51.8583 410.5V410.42C51.8583 410.167 52.0049 410.04 52.2983 410.04C52.6049 410.04 52.9049 410.06 53.1983 410.1C53.4916 410.14 53.7916 410.16 54.0983 410.16C55.2583 410.16 56.4116 410.147 57.5583 410.12C58.7049 410.093 59.8583 410.08 61.0183 410.08C61.4449 410.08 61.8716 410.06 62.2983 410.02C62.7383 409.98 63.1716 409.96 63.5983 409.96C63.7049 409.96 63.7983 409.987 63.8783 410.04C63.9716 410.08 64.0183 410.167 64.0183 410.3C64.0183 410.38 63.9783 410.46 63.8983 410.54C63.8316 410.607 63.7449 410.667 63.6383 410.72C63.5316 410.773 63.4249 410.827 63.3183 410.88C63.2116 410.92 63.1316 410.96 63.0783 411C62.8249 411.173 62.6716 411.42 62.6183 411.74C62.5649 412.047 62.5383 412.333 62.5383 412.6V420.98C62.5383 421.22 62.5516 421.5 62.5783 421.82C62.6183 422.14 62.6983 422.4 62.8183 422.6C62.9516 422.84 63.1116 423.013 63.2983 423.12C63.4983 423.213 63.6849 423.293 63.8583 423.36C64.0449 423.413 64.1983 423.467 64.3183 423.52C64.4383 423.573 64.4983 423.66 64.4983 423.78C64.4983 423.927 64.4449 424.02 64.3383 424.06C64.2316 424.113 64.1183 424.14 63.9983 424.14C63.5583 424.14 63.1116 424.113 62.6583 424.06C62.2183 424.02 61.7783 424 61.3383 424C60.9249 424 60.5116 424.02 60.0983 424.06C59.6849 424.1 59.2716 424.12 58.8583 424.12C58.7516 424.12 58.6516 424.093 58.5583 424.04C58.4783 423.987 58.4383 423.9 58.4383 423.78C58.4383 423.7 58.4649 423.633 58.5183 423.58C58.5716 423.513 58.6383 423.46 58.7183 423.42C58.7983 423.38 58.8783 423.347 58.9583 423.32C59.0383 423.28 59.1049 423.247 59.1583 423.22C59.5049 423.047 59.7183 422.813 59.7983 422.52C59.8783 422.213 59.9183 421.887 59.9183 421.54V412.78ZM66.0056 417.46C66.0056 416.287 66.1923 415.227 66.5656 414.28C66.939 413.333 67.4656 412.533 68.1456 411.88C68.839 411.213 69.6656 410.707 70.6256 410.36C71.5856 410 72.6456 409.82 73.8056 409.82C74.779 409.82 75.699 409.98 76.5656 410.3C77.4456 410.607 78.2056 411.053 78.8456 411.64C79.499 412.213 80.0123 412.913 80.3856 413.74C80.7723 414.567 80.9656 415.487 80.9656 416.5C80.9656 417.673 80.779 418.74 80.4056 419.7C80.0323 420.647 79.5056 421.46 78.8256 422.14C78.1456 422.82 77.3256 423.347 76.3656 423.72C75.419 424.08 74.359 424.26 73.1856 424.26C72.159 424.26 71.2056 424.107 70.3256 423.8C69.4456 423.493 68.6856 423.047 68.0456 422.46C67.4056 421.873 66.9056 421.16 66.5456 420.32C66.1856 419.48 66.0056 418.527 66.0056 417.46ZM68.6456 416.32C68.6456 417.093 68.7256 417.893 68.8856 418.72C69.059 419.533 69.339 420.28 69.7256 420.96C70.1123 421.627 70.619 422.18 71.2456 422.62C71.8856 423.047 72.6723 423.26 73.6056 423.26C74.4456 423.26 75.159 423.1 75.7456 422.78C76.3456 422.447 76.839 422.007 77.2256 421.46C77.6123 420.913 77.8923 420.293 78.0656 419.6C78.2523 418.893 78.3456 418.167 78.3456 417.42C78.3456 416.62 78.239 415.827 78.0256 415.04C77.8123 414.253 77.4856 413.547 77.0456 412.92C76.619 412.293 76.0723 411.787 75.4056 411.4C74.739 411.013 73.959 410.82 73.0656 410.82C72.2256 410.82 71.519 410.973 70.9456 411.28C70.3856 411.573 69.9323 411.973 69.5856 412.48C69.2523 412.973 69.0123 413.553 68.8656 414.22C68.719 414.887 68.6456 415.587 68.6456 416.32ZM82.3914 417.4C82.3914 416.333 82.5847 415.34 82.9714 414.42C83.3581 413.487 83.8847 412.68 84.5514 412C85.2314 411.32 86.0314 410.787 86.9514 410.4C87.8714 410.013 88.8647 409.82 89.9314 409.82C90.5581 409.82 91.1781 409.893 91.7914 410.04C92.4047 410.173 92.9981 410.367 93.5714 410.62C93.7047 410.687 93.8647 410.767 94.0514 410.86C94.2514 410.953 94.4247 411 94.5714 411C94.6647 411 94.7314 410.973 94.7714 410.92C94.8247 410.853 94.8714 410.787 94.9114 410.72C94.9647 410.64 95.0181 410.573 95.0714 410.52C95.1247 410.453 95.1981 410.42 95.2914 410.42C95.4381 410.42 95.5381 410.493 95.5914 410.64C95.6447 410.773 95.6781 410.893 95.6914 411C95.7181 411.213 95.7314 411.427 95.7314 411.64C95.7314 411.84 95.7447 412.047 95.7714 412.26C95.7981 412.647 95.8381 413.04 95.8914 413.44C95.9581 413.827 95.9914 414.213 95.9914 414.6C95.9914 414.707 95.9647 414.807 95.9114 414.9C95.8714 414.98 95.7914 415.02 95.6714 415.02C95.5514 415.02 95.4181 414.92 95.2714 414.72C95.1381 414.507 94.9647 414.247 94.7514 413.94C94.5514 413.62 94.3047 413.28 94.0114 412.92C93.7314 412.56 93.3914 412.227 92.9914 411.92C92.6047 411.6 92.1514 411.34 91.6314 411.14C91.1114 410.927 90.5114 410.82 89.8314 410.82C89.0447 410.82 88.3514 410.96 87.7514 411.24C87.1514 411.52 86.6514 411.9 86.2514 412.38C85.8514 412.86 85.5447 413.427 85.3314 414.08C85.1314 414.72 85.0314 415.407 85.0314 416.14C85.0314 416.913 85.1514 417.693 85.3914 418.48C85.6447 419.253 85.9981 419.953 86.4514 420.58C86.9181 421.193 87.4847 421.7 88.1514 422.1C88.8314 422.487 89.5981 422.68 90.4514 422.68C91.2781 422.68 91.9981 422.547 92.6114 422.28C93.2381 422 93.7714 421.7 94.2114 421.38C94.6514 421.06 94.9981 420.767 95.2514 420.5C95.5181 420.22 95.7047 420.08 95.8114 420.08C95.9047 420.08 95.9847 420.12 96.0514 420.2C96.1181 420.267 96.1514 420.347 96.1514 420.44C96.1514 420.533 96.1181 420.64 96.0514 420.76C95.9847 420.88 95.9047 421 95.8114 421.12C95.7181 421.24 95.6181 421.353 95.5114 421.46C95.4181 421.567 95.3381 421.653 95.2714 421.72C94.4714 422.533 93.5914 423.16 92.6314 423.6C91.6847 424.04 90.6381 424.26 89.4914 424.26C88.4514 424.26 87.4914 424.107 86.6114 423.8C85.7447 423.48 84.9981 423.027 84.3714 422.44C83.7447 421.84 83.2581 421.12 82.9114 420.28C82.5647 419.427 82.3914 418.467 82.3914 417.4ZM97.5877 417.46C97.5877 416.287 97.7743 415.227 98.1477 414.28C98.521 413.333 99.0477 412.533 99.7277 411.88C100.421 411.213 101.248 410.707 102.208 410.36C103.168 410 104.228 409.82 105.388 409.82C106.361 409.82 107.281 409.98 108.148 410.3C109.028 410.607 109.788 411.053 110.428 411.64C111.081 412.213 111.594 412.913 111.968 413.74C112.354 414.567 112.548 415.487 112.548 416.5C112.548 417.673 112.361 418.74 111.988 419.7C111.614 420.647 111.088 421.46 110.408 422.14C109.728 422.82 108.908 423.347 107.948 423.72C107.001 424.08 105.941 424.26 104.768 424.26C103.741 424.26 102.788 424.107 101.908 423.8C101.028 423.493 100.268 423.047 99.6277 422.46C98.9877 421.873 98.4877 421.16 98.1277 420.32C97.7677 419.48 97.5877 418.527 97.5877 417.46ZM100.228 416.32C100.228 417.093 100.308 417.893 100.468 418.72C100.641 419.533 100.921 420.28 101.308 420.96C101.694 421.627 102.201 422.18 102.828 422.62C103.468 423.047 104.254 423.26 105.188 423.26C106.028 423.26 106.741 423.1 107.328 422.78C107.928 422.447 108.421 422.007 108.808 421.46C109.194 420.913 109.474 420.293 109.648 419.6C109.834 418.893 109.928 418.167 109.928 417.42C109.928 416.62 109.821 415.827 109.608 415.04C109.394 414.253 109.068 413.547 108.628 412.92C108.201 412.293 107.654 411.787 106.988 411.4C106.321 411.013 105.541 410.82 104.648 410.82C103.808 410.82 103.101 410.973 102.528 411.28C101.968 411.573 101.514 411.973 101.168 412.48C100.834 412.973 100.594 413.553 100.448 414.22C100.301 414.887 100.228 415.587 100.228 416.32ZM127.073 419.68C127.073 420.427 126.933 421.08 126.653 421.64C126.387 422.187 126.02 422.647 125.553 423.02C125.1 423.38 124.56 423.653 123.933 423.84C123.32 424.027 122.673 424.12 121.993 424.12C121.34 424.12 120.687 424.093 120.033 424.04C119.393 424 118.747 423.98 118.093 423.98C117.587 423.98 117.08 423.993 116.573 424.02C116.067 424.06 115.56 424.093 115.053 424.12C114.947 424.133 114.847 424.107 114.753 424.04C114.673 423.987 114.633 423.9 114.633 423.78C114.633 423.7 114.66 423.633 114.713 423.58C114.767 423.527 114.833 423.48 114.913 423.44C114.993 423.387 115.073 423.347 115.153 423.32C115.233 423.28 115.3 423.247 115.353 423.22C115.7 423.033 115.913 422.793 115.993 422.5C116.073 422.207 116.113 421.887 116.113 421.54V413.06C116.113 412.833 116.1 412.58 116.073 412.3C116.047 412.007 115.987 411.753 115.893 411.54C115.773 411.287 115.607 411.1 115.393 410.98C115.18 410.86 114.967 410.773 114.753 410.72C114.54 410.653 114.353 410.6 114.193 410.56C114.033 410.507 113.953 410.42 113.953 410.3C113.953 410.153 114.007 410.06 114.113 410.02C114.233 409.98 114.347 409.96 114.453 409.96C114.827 409.96 115.2 409.98 115.573 410.02C115.947 410.06 116.32 410.08 116.693 410.08C117.387 410.08 118.073 410.06 118.753 410.02C119.433 409.98 120.12 409.96 120.813 409.96C121.387 409.96 121.973 410.013 122.573 410.12C123.173 410.213 123.72 410.393 124.213 410.66C124.72 410.913 125.133 411.267 125.453 411.72C125.773 412.173 125.933 412.747 125.933 413.44C125.933 414.12 125.78 414.673 125.473 415.1C125.167 415.513 124.72 415.88 124.133 416.2C124.56 416.36 124.953 416.54 125.313 416.74C125.673 416.927 125.98 417.16 126.233 417.44C126.5 417.707 126.707 418.027 126.853 418.4C127 418.76 127.073 419.187 127.073 419.68ZM118.733 420.86C118.733 421.313 118.787 421.687 118.893 421.98C119 422.273 119.153 422.507 119.353 422.68C119.567 422.84 119.833 422.953 120.153 423.02C120.473 423.087 120.847 423.12 121.273 423.12C122.193 423.12 122.947 422.867 123.533 422.36C124.133 421.853 124.433 421.12 124.433 420.16C124.433 419.547 124.307 419.047 124.053 418.66C123.813 418.273 123.493 417.973 123.093 417.76C122.693 417.533 122.24 417.38 121.733 417.3C121.24 417.207 120.74 417.16 120.233 417.16C119.913 417.16 119.653 417.18 119.453 417.22C119.253 417.247 119.1 417.313 118.993 417.42C118.887 417.527 118.813 417.68 118.773 417.88C118.747 418.067 118.733 418.32 118.733 418.64V420.86ZM118.733 414.86C118.733 415.38 118.833 415.733 119.033 415.92C119.247 416.093 119.607 416.18 120.113 416.18C120.5 416.18 120.88 416.173 121.253 416.16C121.64 416.133 121.98 416.053 122.273 415.92C122.58 415.787 122.827 415.58 123.013 415.3C123.2 415.02 123.293 414.627 123.293 414.12C123.293 413.667 123.213 413.247 123.053 412.86C122.907 412.473 122.693 412.14 122.413 411.86C122.133 411.58 121.8 411.36 121.413 411.2C121.04 411.04 120.627 410.96 120.173 410.96C119.853 410.96 119.6 410.993 119.413 411.06C119.227 411.113 119.08 411.207 118.973 411.34C118.88 411.473 118.813 411.647 118.773 411.86C118.747 412.06 118.733 412.3 118.733 412.58V414.86ZM128.525 417.46C128.525 416.287 128.712 415.227 129.085 414.28C129.458 413.333 129.985 412.533 130.665 411.88C131.358 411.213 132.185 410.707 133.145 410.36C134.105 410 135.165 409.82 136.325 409.82C137.298 409.82 138.218 409.98 139.085 410.3C139.965 410.607 140.725 411.053 141.365 411.64C142.018 412.213 142.532 412.913 142.905 413.74C143.292 414.567 143.485 415.487 143.485 416.5C143.485 417.673 143.298 418.74 142.925 419.7C142.552 420.647 142.025 421.46 141.345 422.14C140.665 422.82 139.845 423.347 138.885 423.72C137.938 424.08 136.878 424.26 135.705 424.26C134.678 424.26 133.725 424.107 132.845 423.8C131.965 423.493 131.205 423.047 130.565 422.46C129.925 421.873 129.425 421.16 129.065 420.32C128.705 419.48 128.525 418.527 128.525 417.46ZM131.165 416.32C131.165 417.093 131.245 417.893 131.405 418.72C131.578 419.533 131.858 420.28 132.245 420.96C132.632 421.627 133.138 422.18 133.765 422.62C134.405 423.047 135.192 423.26 136.125 423.26C136.965 423.26 137.678 423.1 138.265 422.78C138.865 422.447 139.358 422.007 139.745 421.46C140.132 420.913 140.412 420.293 140.585 419.6C140.772 418.893 140.865 418.167 140.865 417.42C140.865 416.62 140.758 415.827 140.545 415.04C140.332 414.253 140.005 413.547 139.565 412.92C139.138 412.293 138.592 411.787 137.925 411.4C137.258 411.013 136.478 410.82 135.585 410.82C134.745 410.82 134.038 410.973 133.465 411.28C132.905 411.573 132.452 411.973 132.105 412.48C131.772 412.973 131.532 413.553 131.385 414.22C131.238 414.887 131.165 415.587 131.165 416.32ZM159.211 413.36V418.62C159.211 419.087 159.218 419.547 159.231 420C159.258 420.453 159.298 420.913 159.351 421.38C159.391 421.793 159.498 422.193 159.671 422.58C159.844 422.953 160.138 423.227 160.551 423.4C160.658 423.44 160.771 423.487 160.891 423.54C161.024 423.593 161.091 423.693 161.091 423.84C161.091 423.973 161.038 424.053 160.931 424.08C160.838 424.107 160.738 424.12 160.631 424.12C160.324 424.12 160.024 424.1 159.731 424.06C159.438 424.02 159.138 424 158.831 424C158.071 424 157.324 424.02 156.591 424.06C155.858 424.1 155.111 424.12 154.351 424.12C154.218 424.12 154.098 424.093 153.991 424.04C153.884 424 153.831 423.907 153.831 423.76C153.831 423.627 153.884 423.54 153.991 423.5C154.111 423.46 154.224 423.427 154.331 423.4C154.904 423.307 155.358 423.12 155.691 422.84C156.024 422.56 156.244 422.127 156.351 421.54C156.431 421.073 156.478 420.607 156.491 420.14C156.504 419.66 156.511 419.187 156.511 418.72V414.36C156.511 414.307 156.511 414.233 156.511 414.14C156.511 414.047 156.504 413.953 156.491 413.86C156.478 413.767 156.458 413.68 156.431 413.6C156.418 413.507 156.391 413.44 156.351 413.4L156.271 413.38L147.691 423.7C147.611 423.793 147.498 423.907 147.351 424.04C147.218 424.187 147.084 424.26 146.951 424.26C146.831 424.26 146.744 424.18 146.691 424.02C146.651 423.873 146.631 423.753 146.631 423.66V414C146.631 413.68 146.624 413.353 146.611 413.02C146.598 412.687 146.551 412.367 146.471 412.06C146.364 411.66 146.211 411.373 146.011 411.2C145.824 411.013 145.631 410.88 145.431 410.8C145.244 410.707 145.078 410.633 144.931 410.58C144.798 410.513 144.731 410.407 144.731 410.26C144.731 410.113 144.804 410.027 144.951 410C145.098 409.973 145.224 409.96 145.331 409.96C145.998 409.96 146.658 409.98 147.311 410.02C147.978 410.06 148.644 410.08 149.311 410.08C149.658 410.08 149.998 410.06 150.331 410.02C150.678 409.98 151.024 409.96 151.371 409.96C151.518 409.96 151.598 409.987 151.611 410.04C151.638 410.08 151.651 410.167 151.651 410.3C151.651 410.46 151.551 410.567 151.351 410.62C151.164 410.66 150.944 410.72 150.691 410.8C150.438 410.867 150.184 410.987 149.931 411.16C149.678 411.333 149.491 411.627 149.371 412.04C149.278 412.333 149.224 412.633 149.211 412.94C149.198 413.247 149.191 413.553 149.191 413.86V418.34C149.191 418.38 149.191 418.473 149.191 418.62C149.191 418.767 149.198 418.92 149.211 419.08C149.224 419.24 149.244 419.38 149.271 419.5C149.311 419.62 149.358 419.68 149.411 419.68C149.518 419.68 149.624 419.627 149.731 419.52C149.851 419.413 149.944 419.327 150.011 419.26L156.331 411.24C156.424 411.12 156.531 410.987 156.651 410.84C156.771 410.693 156.898 410.553 157.031 410.42C157.164 410.287 157.304 410.18 157.451 410.1C157.611 410.007 157.778 409.96 157.951 409.96C158.231 409.96 158.511 409.987 158.791 410.04C159.071 410.08 159.351 410.1 159.631 410.1C159.858 410.1 160.084 410.08 160.311 410.04C160.551 409.987 160.791 409.96 161.031 409.96C161.164 409.96 161.291 409.98 161.411 410.02C161.544 410.06 161.611 410.16 161.611 410.32C161.611 410.4 161.598 410.467 161.571 410.52C161.558 410.56 161.511 410.593 161.431 410.62C161.124 410.753 160.858 410.853 160.631 410.92C160.404 410.973 160.158 411.127 159.891 411.38C159.624 411.633 159.444 411.94 159.351 412.3C159.258 412.66 159.211 413.013 159.211 413.36ZM151.011 405.6C151.144 405.6 151.251 405.693 151.331 405.88C151.424 406.067 151.538 406.273 151.671 406.5C151.818 406.713 152.004 406.913 152.231 407.1C152.458 407.273 152.778 407.36 153.191 407.36C153.631 407.36 153.964 407.273 154.191 407.1C154.431 406.913 154.611 406.713 154.731 406.5C154.864 406.273 154.971 406.067 155.051 405.88C155.131 405.693 155.251 405.6 155.411 405.6C155.558 405.667 155.651 405.773 155.691 405.92C155.744 406.053 155.771 406.193 155.771 406.34C155.771 407.113 155.531 407.727 155.051 408.18C154.571 408.62 153.951 408.84 153.191 408.84C152.831 408.84 152.491 408.787 152.171 408.68C151.864 408.573 151.591 408.42 151.351 408.22C151.124 408.007 150.944 407.753 150.811 407.46C150.678 407.167 150.611 406.833 150.611 406.46C150.611 406.393 150.611 406.313 150.611 406.22C150.624 406.113 150.638 406.02 150.651 405.94C150.678 405.847 150.718 405.767 150.771 405.7C150.824 405.633 150.904 405.6 151.011 405.6ZM168.362 420.02C168.362 419.833 168.395 419.66 168.462 419.5C168.542 419.34 168.675 419.227 168.862 419.16L172.742 417.76C172.809 417.733 172.882 417.713 172.962 417.7C173.042 417.687 173.115 417.68 173.182 417.68C173.329 417.68 173.429 417.727 173.482 417.82C173.549 417.9 173.582 418.013 173.582 418.16V418.76C173.582 419.107 173.515 419.34 173.382 419.46C173.249 419.58 173.029 419.693 172.722 419.8L169.382 421.02C169.289 421.047 169.175 421.08 169.042 421.12C168.909 421.147 168.789 421.16 168.682 421.16C168.535 421.16 168.442 421.12 168.402 421.04C168.375 420.947 168.362 420.84 168.362 420.72V420.02ZM187.216 410.34C187.216 410.167 187.303 410.067 187.476 410.04C187.65 410.013 187.796 410 187.916 410C188.383 410 188.85 410.02 189.316 410.06C189.783 410.1 190.25 410.12 190.716 410.12C191.143 410.12 191.57 410.1 191.996 410.06C192.436 410.02 192.87 410 193.296 410C193.403 410 193.496 410.027 193.576 410.08C193.67 410.12 193.716 410.207 193.716 410.34C193.716 410.42 193.676 410.5 193.596 410.58C193.53 410.647 193.443 410.707 193.336 410.76C193.23 410.813 193.123 410.867 193.016 410.92C192.91 410.96 192.83 411 192.776 411.04C192.523 411.213 192.37 411.46 192.316 411.78C192.263 412.087 192.236 412.373 192.236 412.64C192.236 414.133 192.236 415.62 192.236 417.1C192.25 418.567 192.256 420.047 192.256 421.54C192.256 421.887 192.296 422.213 192.376 422.52C192.456 422.813 192.67 423.047 193.016 423.22C193.07 423.247 193.136 423.28 193.216 423.32C193.296 423.347 193.376 423.38 193.456 423.42C193.536 423.46 193.603 423.513 193.656 423.58C193.71 423.633 193.736 423.7 193.736 423.78C193.736 423.927 193.69 424.02 193.596 424.06C193.516 424.1 193.416 424.12 193.296 424.12C192.91 424.12 192.516 424.1 192.116 424.06C191.716 424.02 191.323 424 190.936 424C190.443 424 189.95 424.02 189.456 424.06C188.976 424.1 188.49 424.12 187.996 424.12C187.89 424.12 187.776 424.093 187.656 424.04C187.536 424 187.476 423.907 187.476 423.76C187.476 423.667 187.523 423.587 187.616 423.52C187.723 423.44 187.843 423.373 187.976 423.32C188.11 423.267 188.243 423.22 188.376 423.18C188.523 423.14 188.63 423.107 188.696 423.08C188.923 423 189.096 422.88 189.216 422.72C189.35 422.56 189.443 422.387 189.496 422.2C189.563 422 189.603 421.793 189.616 421.58C189.63 421.353 189.636 421.133 189.636 420.92V418.94C189.45 419.033 189.236 419.113 188.996 419.18C188.77 419.247 188.53 419.3 188.276 419.34C188.036 419.38 187.79 419.407 187.536 419.42C187.296 419.433 187.076 419.44 186.876 419.44C186.29 419.44 185.73 419.353 185.196 419.18C184.663 419.007 184.183 418.76 183.756 418.44C183.343 418.107 183.01 417.7 182.756 417.22C182.516 416.727 182.396 416.167 182.396 415.54C182.396 415.14 182.396 414.74 182.396 414.34C182.41 413.927 182.416 413.52 182.416 413.12C182.416 412.867 182.403 412.593 182.376 412.3C182.35 412.007 182.27 411.747 182.136 411.52C181.99 411.28 181.796 411.107 181.556 411C181.316 410.893 181.083 410.813 180.856 410.76C180.63 410.707 180.43 410.66 180.256 410.62C180.096 410.567 180.016 410.473 180.016 410.34C180.016 410.167 180.103 410.067 180.276 410.04C180.45 410.013 180.596 410 180.716 410C181.183 410 181.65 410.02 182.116 410.06C182.583 410.1 183.05 410.12 183.516 410.12C183.943 410.12 184.37 410.1 184.796 410.06C185.236 410.02 185.67 410 186.096 410C186.203 410 186.296 410.027 186.376 410.08C186.47 410.12 186.516 410.207 186.516 410.34C186.516 410.42 186.476 410.5 186.396 410.58C186.33 410.647 186.243 410.707 186.136 410.76C186.03 410.813 185.923 410.867 185.816 410.92C185.71 410.96 185.63 411 185.576 411.04C185.323 411.213 185.17 411.46 185.116 411.78C185.063 412.087 185.036 412.373 185.036 412.64V415.66C185.036 416.46 185.25 417.127 185.676 417.66C186.116 418.18 186.756 418.44 187.596 418.44C187.93 418.44 188.27 418.413 188.616 418.36C188.976 418.293 189.316 418.213 189.636 418.12L189.616 413.12C189.616 412.867 189.603 412.593 189.576 412.3C189.55 412.007 189.47 411.747 189.336 411.52C189.19 411.28 188.996 411.107 188.756 411C188.516 410.893 188.283 410.813 188.056 410.76C187.83 410.707 187.63 410.66 187.456 410.62C187.296 410.567 187.216 410.473 187.216 410.34ZM202.603 409.82C202.776 409.82 202.916 409.927 203.023 410.14C203.129 410.34 203.216 410.507 203.283 410.64L208.623 422.12C208.729 422.36 208.889 422.613 209.103 422.88C209.316 423.147 209.556 423.32 209.823 423.4C209.943 423.427 210.096 423.467 210.283 423.52C210.469 423.56 210.563 423.667 210.563 423.84C210.563 423.947 210.516 424.02 210.423 424.06C210.343 424.1 210.256 424.12 210.163 424.12C209.683 424.12 209.203 424.1 208.723 424.06C208.243 424.02 207.763 424 207.283 424C206.829 424 206.383 424.02 205.943 424.06C205.503 424.1 205.056 424.12 204.603 424.12C204.509 424.12 204.416 424.093 204.323 424.04C204.229 424 204.183 423.927 204.183 423.82C204.183 423.66 204.256 423.553 204.403 423.5C204.563 423.447 204.736 423.387 204.923 423.32C205.109 423.24 205.276 423.127 205.423 422.98C205.583 422.833 205.663 422.587 205.663 422.24C205.663 422.08 205.636 421.927 205.582 421.78C205.543 421.633 205.489 421.487 205.423 421.34L204.662 419.76C204.516 419.453 204.336 419.273 204.123 419.22C203.909 419.167 203.649 419.14 203.343 419.14H200.543C200.129 419.14 199.803 419.187 199.562 419.28C199.336 419.373 199.149 419.513 199.003 419.7C198.869 419.873 198.749 420.087 198.643 420.34C198.549 420.593 198.436 420.887 198.303 421.22C198.249 421.34 198.196 421.467 198.143 421.6C198.103 421.72 198.083 421.853 198.083 422C198.083 422.36 198.196 422.627 198.423 422.8C198.663 422.96 198.923 423.08 199.203 423.16C199.496 423.24 199.756 423.32 199.983 423.4C200.223 423.467 200.343 423.593 200.343 423.78C200.343 423.913 200.296 424 200.203 424.04C200.123 424.093 200.029 424.12 199.923 424.12C199.536 424.12 199.156 424.1 198.783 424.06C198.423 424.02 198.049 424 197.663 424C197.276 424 196.889 424.02 196.503 424.06C196.129 424.1 195.749 424.12 195.363 424.12C195.256 424.12 195.149 424.093 195.043 424.04C194.936 424 194.883 423.92 194.883 423.8C194.883 423.747 194.943 423.673 195.063 423.58C195.183 423.473 195.323 423.367 195.483 423.26C195.643 423.153 195.796 423.047 195.943 422.94C196.089 422.833 196.189 422.747 196.243 422.68C196.429 422.467 196.576 422.233 196.683 421.98C196.803 421.713 196.923 421.453 197.043 421.2L202.083 410.44C202.123 410.347 202.189 410.22 202.283 410.06C202.376 409.9 202.483 409.82 202.603 409.82ZM199.842 417.88C199.842 418.013 199.916 418.093 200.063 418.12C200.209 418.133 200.329 418.14 200.423 418.14H203.623C203.703 418.14 203.776 418.12 203.843 418.08C203.909 418.04 203.943 417.973 203.943 417.88C203.943 417.827 203.903 417.7 203.823 417.5C203.743 417.3 203.636 417.06 203.503 416.78C203.369 416.5 203.223 416.2 203.063 415.88C202.916 415.56 202.769 415.26 202.623 414.98C202.489 414.687 202.363 414.433 202.243 414.22C202.123 413.993 202.043 413.84 202.003 413.76C201.963 413.693 201.896 413.647 201.803 413.62C201.763 413.647 201.683 413.767 201.563 413.98C201.456 414.18 201.329 414.433 201.183 414.74C201.036 415.033 200.883 415.353 200.723 415.7C200.576 416.047 200.436 416.373 200.303 416.68C200.169 416.987 200.056 417.253 199.963 417.48C199.883 417.693 199.842 417.827 199.842 417.88ZM212.351 409.96C212.938 409.96 213.511 409.98 214.071 410.02C214.644 410.06 215.224 410.08 215.811 410.08H221.171C221.758 410.08 222.331 410.06 222.891 410.02C223.464 409.98 224.044 409.96 224.631 409.96C225.004 409.96 225.211 410.14 225.251 410.5L225.591 413.56C225.604 413.667 225.564 413.753 225.471 413.82C225.391 413.887 225.298 413.92 225.191 413.92C225.004 413.92 224.864 413.807 224.771 413.58C224.678 413.34 224.578 413.067 224.471 412.76C224.378 412.453 224.251 412.153 224.091 411.86C223.931 411.567 223.684 411.367 223.351 411.26C223.084 411.167 222.771 411.113 222.411 411.1C222.051 411.087 221.724 411.08 221.431 411.08C221.258 411.08 221.078 411.073 220.891 411.06C220.704 411.033 220.531 411.033 220.371 411.06C220.211 411.087 220.078 411.153 219.971 411.26C219.878 411.353 219.831 411.52 219.831 411.76C219.831 412 219.824 412.24 219.811 412.48C219.811 412.72 219.811 412.96 219.811 413.2L219.851 421.26C219.851 421.487 219.871 421.753 219.911 422.06C219.964 422.367 220.064 422.607 220.211 422.78C220.304 422.887 220.458 422.98 220.671 423.06C220.898 423.127 221.124 423.2 221.351 423.28C221.578 423.347 221.778 423.42 221.951 423.5C222.124 423.58 222.211 423.68 222.211 423.8C222.211 424.013 222.118 424.12 221.931 424.12C221.331 424.12 220.744 424.1 220.171 424.06C219.598 424.02 219.011 424 218.411 424C217.851 424 217.291 424.02 216.731 424.06C216.184 424.1 215.631 424.12 215.071 424.12C214.978 424.12 214.904 424.087 214.851 424.02C214.798 423.953 214.771 423.873 214.771 423.78C214.771 423.687 214.858 423.6 215.031 423.52C215.204 423.44 215.404 423.36 215.631 423.28C215.871 423.2 216.098 423.12 216.311 423.04C216.538 422.947 216.691 422.853 216.771 422.76C216.864 422.653 216.938 422.507 216.991 422.32C217.058 422.133 217.098 421.933 217.111 421.72C217.138 421.507 217.151 421.3 217.151 421.1C217.164 420.9 217.171 420.727 217.171 420.58V411.76C217.171 411.467 217.078 411.28 216.891 411.2C216.718 411.107 216.504 411.06 216.251 411.06C216.051 411.06 215.804 411.06 215.511 411.06C215.231 411.06 214.938 411.073 214.631 411.1C214.338 411.127 214.051 411.173 213.771 411.24C213.504 411.307 213.298 411.4 213.151 411.52C212.991 411.653 212.858 411.853 212.751 412.12C212.658 412.387 212.564 412.653 212.471 412.92C212.391 413.187 212.298 413.42 212.191 413.62C212.098 413.82 211.971 413.92 211.811 413.92C211.691 413.92 211.591 413.893 211.511 413.84C211.431 413.787 211.391 413.693 211.391 413.56C211.391 413.053 211.431 412.547 211.511 412.04C211.591 411.52 211.664 411.007 211.731 410.5C211.758 410.313 211.818 410.18 211.911 410.1C212.004 410.007 212.151 409.96 212.351 409.96Z" fill="white"/>
<path d="M87.9935 314.68C87.9935 314.445 88.0895 314.211 88.2815 313.976C88.4735 313.72 88.6442 313.507 88.7935 313.336C89.2202 312.845 89.7322 312.248 90.3295 311.544C90.9482 310.819 91.5882 310.04 92.2495 309.208C92.9108 308.355 93.5615 307.469 94.2015 306.552C94.8628 305.635 95.4495 304.728 95.9615 303.832C96.4948 302.936 96.9215 302.083 97.2415 301.272C97.5615 300.44 97.7215 299.704 97.7215 299.064C97.7215 297.976 97.3588 297.133 96.6335 296.536C95.9082 295.917 95.0228 295.608 93.9775 295.608C93.3162 295.608 92.7082 295.715 92.1535 295.928C91.5988 296.141 91.1082 296.376 90.6815 296.632C90.2762 296.867 89.9242 297.091 89.6255 297.304C89.3482 297.517 89.1455 297.624 89.0175 297.624C88.8895 297.624 88.7722 297.571 88.6655 297.464C88.5588 297.357 88.5055 297.24 88.5055 297.112C88.5055 297.005 88.5588 296.877 88.6655 296.728C88.7722 296.557 88.9002 296.397 89.0495 296.248C89.1988 296.077 89.3482 295.928 89.4975 295.8C89.6468 295.651 89.7642 295.533 89.8495 295.448C90.7455 294.659 91.6628 294.04 92.6015 293.592C93.5615 293.144 94.6495 292.92 95.8655 292.92C96.5695 292.92 97.2522 293.027 97.9135 293.24C98.5748 293.432 99.1615 293.72 99.6735 294.104C100.186 294.488 100.591 294.979 100.89 295.576C101.21 296.152 101.37 296.824 101.37 297.592C101.37 298.467 101.156 299.384 100.73 300.344C100.303 301.283 99.7695 302.221 99.1295 303.16C98.4895 304.077 97.7962 304.973 97.0495 305.848C96.3028 306.723 95.6095 307.523 94.9695 308.248C94.3295 308.973 93.7962 309.603 93.3695 310.136C92.9428 310.669 92.7295 311.053 92.7295 311.288C92.7295 311.416 92.8148 311.523 92.9855 311.608C93.1562 311.672 93.3482 311.725 93.5615 311.768C93.7962 311.789 94.0202 311.8 94.2335 311.8C94.4468 311.8 94.5962 311.8 94.6815 311.8C95.1722 311.8 95.7375 311.8 96.3775 311.8C97.0388 311.779 97.6895 311.736 98.3295 311.672C98.9908 311.587 99.6095 311.448 100.186 311.256C100.762 311.064 101.231 310.776 101.594 310.392C101.764 310.221 101.967 309.997 102.202 309.72C102.458 309.421 102.714 309.261 102.97 309.24C103.098 309.283 103.204 309.357 103.29 309.464C103.396 309.571 103.45 309.688 103.45 309.816C103.45 309.965 103.396 310.189 103.29 310.488C103.183 310.787 103.034 311.128 102.842 311.512C102.671 311.875 102.468 312.259 102.234 312.664C102.02 313.069 101.807 313.443 101.594 313.784C101.38 314.125 101.178 314.413 100.986 314.648C100.794 314.883 100.634 315.021 100.506 315.064C100.314 315.128 100.068 315.16 99.7695 315.16C99.4708 315.181 99.2148 315.192 99.0015 315.192C97.8282 315.192 96.6655 315.16 95.5135 315.096C94.3615 315.032 93.1988 315 92.0255 315C91.4495 315 90.8735 315.032 90.2975 315.096C89.7428 315.16 89.1775 315.192 88.6015 315.192C88.4308 315.192 88.2815 315.149 88.1535 315.064C88.0468 314.979 87.9935 314.851 87.9935 314.68ZM105.496 305.304C105.496 303.683 105.698 302.083 106.104 300.504C106.509 298.904 107.224 297.453 108.248 296.152C108.994 295.192 109.848 294.413 110.808 293.816C111.768 293.219 112.888 292.92 114.168 292.92C115.469 292.92 116.589 293.24 117.528 293.88C118.488 294.499 119.266 295.299 119.864 296.28C120.482 297.24 120.941 298.317 121.24 299.512C121.538 300.707 121.688 301.859 121.688 302.968C121.688 304.205 121.506 305.549 121.144 307C120.802 308.451 120.269 309.805 119.544 311.064C118.818 312.301 117.901 313.336 116.792 314.168C115.704 315 114.424 315.416 112.952 315.416C111.992 315.416 111.064 315.181 110.168 314.712C109.272 314.264 108.514 313.699 107.896 313.016C107.298 312.333 106.818 311.576 106.456 310.744C106.114 309.912 105.869 309.037 105.72 308.12C105.57 307.181 105.496 306.243 105.496 305.304ZM108.472 301.592C108.472 302.189 108.504 302.893 108.568 303.704C108.653 304.515 108.781 305.357 108.952 306.232C109.144 307.085 109.389 307.939 109.688 308.792C110.008 309.624 110.392 310.381 110.84 311.064C111.288 311.725 111.81 312.259 112.408 312.664C113.026 313.069 113.741 313.272 114.552 313.272C115.341 313.272 116.002 313.069 116.536 312.664C117.069 312.237 117.496 311.715 117.816 311.096C118.136 310.477 118.36 309.805 118.488 309.08C118.637 308.333 118.712 307.64 118.712 307C118.712 304.568 118.221 302.221 117.24 299.96C117.026 299.491 116.77 298.968 116.472 298.392C116.173 297.816 115.821 297.283 115.416 296.792C115.01 296.301 114.552 295.896 114.04 295.576C113.549 295.235 113.005 295.064 112.408 295.064C111.597 295.064 110.936 295.288 110.424 295.736C109.933 296.184 109.538 296.739 109.24 297.4C108.941 298.061 108.738 298.776 108.632 299.544C108.525 300.291 108.472 300.973 108.472 301.592ZM123.868 314.68C123.868 314.445 123.965 314.211 124.157 313.976C124.349 313.72 124.519 313.507 124.669 313.336C125.095 312.845 125.607 312.248 126.205 311.544C126.823 310.819 127.463 310.04 128.125 309.208C128.786 308.355 129.437 307.469 130.077 306.552C130.738 305.635 131.325 304.728 131.837 303.832C132.37 302.936 132.797 302.083 133.117 301.272C133.437 300.44 133.597 299.704 133.597 299.064C133.597 297.976 133.234 297.133 132.509 296.536C131.783 295.917 130.898 295.608 129.853 295.608C129.191 295.608 128.583 295.715 128.029 295.928C127.474 296.141 126.983 296.376 126.557 296.632C126.151 296.867 125.799 297.091 125.501 297.304C125.223 297.517 125.021 297.624 124.893 297.624C124.765 297.624 124.647 297.571 124.541 297.464C124.434 297.357 124.381 297.24 124.381 297.112C124.381 297.005 124.434 296.877 124.541 296.728C124.647 296.557 124.775 296.397 124.924 296.248C125.074 296.077 125.223 295.928 125.373 295.8C125.522 295.651 125.639 295.533 125.725 295.448C126.621 294.659 127.538 294.04 128.477 293.592C129.437 293.144 130.525 292.92 131.741 292.92C132.445 292.92 133.127 293.027 133.789 293.24C134.45 293.432 135.037 293.72 135.549 294.104C136.061 294.488 136.466 294.979 136.765 295.576C137.085 296.152 137.245 296.824 137.245 297.592C137.245 298.467 137.031 299.384 136.605 300.344C136.178 301.283 135.645 302.221 135.005 303.16C134.365 304.077 133.671 304.973 132.925 305.848C132.178 306.723 131.485 307.523 130.845 308.248C130.205 308.973 129.671 309.603 129.245 310.136C128.818 310.669 128.605 311.053 128.605 311.288C128.605 311.416 128.69 311.523 128.861 311.608C129.031 311.672 129.223 311.725 129.437 311.768C129.671 311.789 129.895 311.8 130.109 311.8C130.322 311.8 130.471 311.8 130.557 311.8C131.047 311.8 131.613 311.8 132.253 311.8C132.914 311.779 133.565 311.736 134.205 311.672C134.866 311.587 135.485 311.448 136.061 311.256C136.637 311.064 137.106 310.776 137.469 310.392C137.639 310.221 137.842 309.997 138.077 309.72C138.333 309.421 138.589 309.261 138.845 309.24C138.973 309.283 139.079 309.357 139.165 309.464C139.271 309.571 139.325 309.688 139.325 309.816C139.325 309.965 139.271 310.189 139.165 310.488C139.058 310.787 138.909 311.128 138.717 311.512C138.546 311.875 138.343 312.259 138.109 312.664C137.895 313.069 137.682 313.443 137.469 313.784C137.255 314.125 137.053 314.413 136.861 314.648C136.669 314.883 136.509 315.021 136.381 315.064C136.189 315.128 135.943 315.16 135.645 315.16C135.346 315.181 135.09 315.192 134.877 315.192C133.703 315.192 132.541 315.16 131.389 315.096C130.237 315.032 129.074 315 127.901 315C127.325 315 126.749 315.032 126.173 315.096C125.618 315.16 125.053 315.192 124.477 315.192C124.306 315.192 124.157 315.149 124.029 315.064C123.922 314.979 123.868 314.851 123.868 314.68ZM141.115 306.552C141.115 305.016 141.381 303.555 141.915 302.168C142.448 300.76 143.173 299.491 144.091 298.36C145.029 297.208 146.128 296.227 147.387 295.416C148.645 294.584 150 293.955 151.451 293.528C152.005 293.357 152.56 293.219 153.115 293.112C153.691 292.984 154.256 292.92 154.811 292.92C154.981 292.92 155.152 292.952 155.323 293.016C155.515 293.059 155.611 293.197 155.611 293.432C155.611 293.624 155.536 293.773 155.387 293.88C155.259 293.987 155.099 294.072 154.907 294.136C154.736 294.2 154.544 294.253 154.331 294.296C154.139 294.339 153.979 294.371 153.851 294.392C152.315 294.755 150.96 295.416 149.787 296.376C148.613 297.315 147.643 298.456 146.875 299.8C146.704 300.099 146.501 300.483 146.267 300.952C146.032 301.4 145.915 301.795 145.915 302.136C145.915 302.243 145.915 302.339 145.915 302.424C145.936 302.488 146.021 302.52 146.171 302.52C146.277 302.52 146.512 302.445 146.875 302.296C147.237 302.125 147.653 301.955 148.123 301.784C148.613 301.592 149.136 301.421 149.691 301.272C150.245 301.101 150.768 301.016 151.259 301.016C152.176 301.016 152.997 301.187 153.723 301.528C154.448 301.869 155.056 302.328 155.547 302.904C156.059 303.48 156.443 304.163 156.699 304.952C156.976 305.72 157.115 306.541 157.115 307.416C157.115 308.611 156.912 309.699 156.507 310.68C156.123 311.661 155.579 312.504 154.875 313.208C154.171 313.912 153.328 314.456 152.347 314.84C151.365 315.224 150.288 315.416 149.115 315.416C147.792 315.416 146.629 315.192 145.627 314.744C144.624 314.296 143.781 313.677 143.099 312.888C142.437 312.077 141.936 311.139 141.595 310.072C141.275 308.984 141.115 307.811 141.115 306.552ZM144.795 307.608C144.795 308.312 144.901 309.048 145.115 309.816C145.328 310.563 145.648 311.256 146.075 311.896C146.501 312.515 147.024 313.027 147.643 313.432C148.261 313.816 148.976 314.008 149.787 314.008C150.448 314.008 151.003 313.88 151.451 313.624C151.92 313.347 152.304 312.995 152.603 312.568C152.901 312.12 153.115 311.619 153.243 311.064C153.392 310.509 153.467 309.944 153.467 309.368C153.467 308.685 153.371 307.981 153.179 307.256C153.008 306.531 152.731 305.869 152.347 305.272C151.984 304.653 151.504 304.152 150.907 303.768C150.331 303.384 149.648 303.192 148.859 303.192C148.219 303.192 147.643 303.309 147.131 303.544C146.64 303.779 146.213 304.099 145.851 304.504C145.509 304.909 145.243 305.379 145.051 305.912C144.88 306.445 144.795 307.011 144.795 307.608Z" fill="white"/>
<defs>
<filter id="filter0_d_3089_11313" x="26.8463" y="342.12" width="191.533" height="31.5518" filterUnits="userSpaceOnUse" color-interpolation-filters="sRGB">
<feFlood flood-opacity="0" result="BackgroundImageFix"/>
<feColorMatrix in="SourceAlpha" type="matrix" values="0 0 0 0 0 0 0 0 0 0 0 0 0 0 0 0 0 0 127 0" result="hardAlpha"/>
<feOffset dy="4"/>
<feGaussianBlur stdDeviation="2"/>
<feComposite in2="hardAlpha" operator="out"/>
<feColorMatrix type="matrix" values="0 0 0 0 0 0 0 0 0 0 0 0 0 0 0 0 0 0 0.25 0"/>
<feBlend mode="normal" in2="BackgroundImageFix" result="effect1_dropShadow_3089_11313"/>
<feBlend mode="normal" in="SourceGraphic" in2="effect1_dropShadow_3089_11313" result="shape"/>
</filter>
<linearGradient id="paint0_linear_3089_11313" x1="29.5" y1="-4.2578e-06" x2="147" y2="265" gradientUnits="userSpaceOnUse">
<stop stop-color="#60E6D8"/>
<stop offset="1" stop-color="#31AFA2"/>
</linearGradient>
<linearGradient id="paint1_linear_3089_11313" x1="29.5" y1="-4.2578e-06" x2="147" y2="265" gradientUnits="userSpaceOnUse">
<stop stop-color="#60E6D8"/>
<stop offset="1" stop-color="#31AFA2"/>
</linearGradient>
<linearGradient id="paint2_linear_3089_11313" x1="29.5" y1="-4.2578e-06" x2="147" y2="265" gradientUnits="userSpaceOnUse">
<stop stop-color="#60E6D8"/>
<stop offset="1" stop-color="#31AFA2"/>
</linearGradient>
<linearGradient id="paint3_linear_3089_11313" x1="29.5" y1="-4.2578e-06" x2="147" y2="265" gradientUnits="userSpaceOnUse">
<stop stop-color="#60E6D8"/>
<stop offset="1" stop-color="#31AFA2"/>
</linearGradient>
<linearGradient id="paint4_linear_3089_11313" x1="29.5" y1="-4.2578e-06" x2="147" y2="265" gradientUnits="userSpaceOnUse">
<stop stop-color="#60E6D8"/>
<stop offset="1" stop-color="#31AFA2"/>
</linearGradient>
<linearGradient id="paint5_linear_3089_11313" x1="29.5" y1="-4.2578e-06" x2="147" y2="265" gradientUnits="userSpaceOnUse">
<stop stop-color="#60E6D8"/>
<stop offset="1" stop-color="#31AFA2"/>
</linearGradient>
<linearGradient id="paint6_linear_3089_11313" x1="29.5" y1="-4.2578e-06" x2="147" y2="265" gradientUnits="userSpaceOnUse">
<stop stop-color="#60E6D8"/>
<stop offset="1" stop-color="#31AFA2"/>
</linearGradient>
<linearGradient id="paint7_linear_3089_11313" x1="29.5" y1="-4.2578e-06" x2="147" y2="265" gradientUnits="userSpaceOnUse">
<stop stop-color="#60E6D8"/>
<stop offset="1" stop-color="#31AFA2"/>
</linearGradient>
<linearGradient id="paint8_linear_3089_11313" x1="29.5" y1="-4.2578e-06" x2="147" y2="265" gradientUnits="userSpaceOnUse">
<stop stop-color="#60E6D8"/>
<stop offset="1" stop-color="#31AFA2"/>
</linearGradient>
<linearGradient id="paint9_linear_3089_11313" x1="29.5" y1="-4.2578e-06" x2="147" y2="265" gradientUnits="userSpaceOnUse">
<stop stop-color="#60E6D8"/>
<stop offset="1" stop-color="#31AFA2"/>
</linearGradient>
</defs>
</svg>
