<svg width="24" height="24" viewBox="0 0 24 24" fill="none" xmlns="http://www.w3.org/2000/svg">
<path d="M17.75 14.95L16.3 13.5C16.5333 13.1167 16.7083 12.7167 16.825 12.3C16.9417 11.8833 17 11.45 17 11H19C19 11.7333 18.8917 12.4292 18.675 13.0875C18.4583 13.7458 18.15 14.3667 17.75 14.95ZM14.8 11.95L8.99999 6.15V5C8.99999 4.16667 9.29166 3.45833 9.87499 2.875C10.4583 2.29167 11.1667 2 12 2C12.8333 2 13.5417 2.29167 14.125 2.875C14.7083 3.45833 15 4.16667 15 5V11C15 11.1833 14.9792 11.35 14.9375 11.5C14.8958 11.65 14.85 11.8 14.8 11.95ZM11 21V17.9C9.26666 17.6667 7.83333 16.8958 6.69999 15.5875C5.56666 14.2792 4.99999 12.75 4.99999 11H6.99999C6.99999 12.3833 7.48749 13.5625 8.46249 14.5375C9.43749 15.5125 10.6167 16 12 16C12.5667 16 13.1042 15.9125 13.6125 15.7375C14.1208 15.5625 14.5833 15.3167 15 15L16.425 16.425C15.9417 16.8083 15.4125 17.1292 14.8375 17.3875C14.2625 17.6458 13.65 17.8167 13 17.9V21H11ZM19.8 22.6L1.39999 4.2L2.79999 2.8L21.2 21.2L19.8 22.6Z" fill="#FF0004"/>
</svg>
