<svg width="24" height="24" viewBox="0 0 24 24" fill="none" xmlns="http://www.w3.org/2000/svg">
<path d="M14.5996 4C16.8398 4 17.9608 3.99957 18.8164 4.43555C19.5689 4.81902 20.181 5.43109 20.5645 6.18359C21.0004 7.03924 21 8.16018 21 10.4004V11.5996C21 13.8398 21.0004 14.9608 20.5645 15.8164C20.181 16.5689 19.5689 17.181 18.8164 17.5645C17.9608 18.0004 16.8398 18 14.5996 18H7.41406C7.1489 18 6.89453 18.1055 6.70703 18.293L4.70703 20.293C4.07709 20.9228 3.00012 20.4767 3 19.5859V10.4004C3 8.16018 2.99957 7.03924 3.43555 6.18359C3.81902 5.43109 4.43109 4.81902 5.18359 4.43555C6.03924 3.99957 7.16018 4 9.40039 4H14.5996ZM9 12C8.44772 12 8 12.4477 8 13C8 13.5523 8.44772 14 9 14H12C12.5523 14 13 13.5523 13 13C13 12.4477 12.5523 12 12 12H9ZM9 8C8.44772 8 8 8.44772 8 9C8 9.55228 8.44772 10 9 10H15C15.5523 10 16 9.55228 16 9C16 8.44772 15.5523 8 15 8H9Z" fill="#CB7676"/>
</svg>
