<svg width="24" height="24" viewBox="0 0 24 24" fill="none" xmlns="http://www.w3.org/2000/svg">
<path d="M17.0913 17.9695L18.0993 20H3L4.17578 17.9695H4.90103C5.57871 14.3463 6.08557 10.0283 5.74641 7.45325C4.8591 7.37365 4.21395 6.62404 4.26652 5.52647C4.34786 3.85236 6.28831 3.20708 7.83391 4.21239C8.49345 3.34639 9.7243 3.11964 10.4308 3.85839C11.524 2.53044 13.7122 2.78373 14.3129 4.33843C15.5763 4.06886 16.5262 4.6466 16.5425 5.77855C16.5581 6.90386 15.8316 7.30249 14.9706 7.22047C14.9462 7.41647 14.9268 7.62694 14.9118 7.85188C16.4924 7.81871 18.0374 7.54794 19.5605 7.12519C20.6311 10.2738 21.1004 13.4881 20.9822 16.7664C19.3208 17.4641 17.5549 17.4496 15.7897 17.443C15.8285 17.6209 15.8685 17.7964 15.9092 17.9689H17.0919L17.0913 17.9695ZM19.5867 15.8141C19.6775 13.2975 19.317 11.2369 18.4936 8.77577C17.3071 9.04776 16.1032 9.1159 14.8717 9.03811C14.8611 11.0686 15.0989 13.7215 15.5313 16.138C16.9092 16.2097 18.2896 16.296 19.5867 15.8147V15.8141Z" fill="white"/>
</svg>
